<svg data-v-423bf9ae="" xmlns="http://www.w3.org/2000/svg" viewBox="0 0 444.42644121129877 60" class="font"><!----><!----><!----><g data-v-423bf9ae="" id="ed526186-833b-4c92-9792-af9ed755406c" fill="black" transform="matrix(9.693052475501048,0,0,9.693052475501048,-3.0048419487121976,-24.135701471693494)"><path d="M0.31 8.59L1.86 8.59L1.86 6.55L3.12 6.64L3.12 5.48L1.86 5.48L1.86 4.21L3.39 4.31L3.39 3.12L0.31 3.12L0.31 8.59ZM3.82 8.59L5.33 8.59L5.33 6.45L5.33 6.45Q5.46 6.20 5.94 6.20L5.94 6.20L5.94 6.20Q6.27 6.20 6.37 6.29L6.37 6.29L6.53 4.63L6.53 4.63Q6.40 4.59 6.29 4.59L6.29 4.59L6.29 4.59Q5.25 4.59 5.06 5.73L5.06 5.73L4.92 4.62L4.55 4.62L3.54 4.87L3.54 5.39L3.82 5.57L3.82 8.59ZM8.99 6.17L8.99 6.17L8.28 6.17L8.28 5.78L8.28 5.78Q8.28 5.61 8.29 5.50L8.29 5.50L8.29 5.50Q8.30 5.39 8.34 5.29L8.34 5.29L8.34 5.29Q8.39 5.18 8.47 5.14L8.47 5.14L8.47 5.14Q8.56 5.09 8.70 5.09L8.70 5.09L8.70 5.09Q8.87 5.09 8.93 5.33L8.93 5.33L8.93 5.33Q8.99 5.58 8.99 6.17ZM8.61 8.68L8.61 8.68L8.61 8.68Q8.89 8.68 9.20 8.62L9.20 8.62L9.20 8.62Q9.51 8.55 9.84 8.37L9.84 8.37L9.84 8.37Q10.18 8.18 10.35 7.90L10.35 7.90L10.08 7.42L10.08 7.42Q9.94 7.55 9.75 7.63L9.75 7.63L9.75 7.63Q9.56 7.72 9.37 7.77L9.37 7.77L9.37 7.77Q9.18 7.81 9.02 7.81L9.02 7.81L9.02 7.81Q8.85 7.81 8.73 7.78L8.73 7.78L8.73 7.78Q8.61 7.75 8.50 7.67L8.50 7.67L8.50 7.67Q8.39 7.58 8.33 7.41L8.33 7.41L8.33 7.41Q8.27 7.23 8.27 6.95L8.27 6.95L8.27 6.86L10.41 6.86L10.41 6.35L10.41 6.35Q10.41 5.39 10.01 4.96L10.01 4.96L10.01 4.96Q9.61 4.53 8.69 4.53L8.69 4.53L8.69 4.53Q7.74 4.53 7.21 5.06L7.21 5.06L7.21 5.06Q6.67 5.60 6.67 6.65L6.67 6.65L6.67 6.65Q6.67 7.08 6.78 7.44L6.78 7.44L6.78 7.44Q6.88 7.80 7.10 8.08L7.10 8.08L7.10 8.08Q7.32 8.37 7.71 8.53L7.71 8.53L7.71 8.53Q8.09 8.68 8.61 8.68ZM13.01 6.17L13.01 6.17L12.30 6.17L12.30 5.78L12.30 5.78Q12.30 5.61 12.31 5.50L12.31 5.50L12.31 5.50Q12.32 5.39 12.36 5.29L12.36 5.29L12.36 5.29Q12.40 5.18 12.49 5.14L12.49 5.14L12.49 5.14Q12.58 5.09 12.72 5.09L12.72 5.09L12.72 5.09Q12.88 5.09 12.95 5.33L12.95 5.33L12.95 5.33Q13.01 5.58 13.01 6.17ZM12.63 8.68L12.63 8.68L12.63 8.68Q12.91 8.68 13.22 8.62L13.22 8.62L13.22 8.62Q13.53 8.55 13.86 8.37L13.86 8.37L13.86 8.37Q14.20 8.18 14.37 7.90L14.37 7.90L14.09 7.42L14.09 7.42Q13.96 7.55 13.77 7.63L13.77 7.63L13.77 7.63Q13.58 7.72 13.39 7.77L13.39 7.77L13.39 7.77Q13.20 7.81 13.03 7.81L13.03 7.81L13.03 7.81Q12.87 7.81 12.75 7.78L12.75 7.78L12.75 7.78Q12.63 7.75 12.52 7.67L12.52 7.67L12.52 7.67Q12.41 7.58 12.35 7.41L12.35 7.41L12.35 7.41Q12.29 7.23 12.29 6.95L12.29 6.95L12.29 6.86L14.42 6.86L14.42 6.35L14.42 6.35Q14.42 5.39 14.03 4.96L14.03 4.96L14.03 4.96Q13.63 4.53 12.71 4.53L12.71 4.53L12.71 4.53Q11.76 4.53 11.22 5.06L11.22 5.06L11.22 5.06Q10.69 5.60 10.69 6.65L10.69 6.65L10.69 6.65Q10.69 7.08 10.79 7.44L10.79 7.44L10.79 7.44Q10.90 7.80 11.12 8.08L11.12 8.08L11.12 8.08Q11.34 8.37 11.72 8.53L11.72 8.53L11.72 8.53Q12.11 8.68 12.63 8.68ZM18.59 7.82L18.59 7.82L18.29 7.82L18.29 3.92L18.64 3.92L18.64 3.92Q18.97 3.92 19.14 4.33L19.14 4.33L19.14 4.33Q19.32 4.73 19.32 5.46L19.32 5.46L19.32 5.94L19.32 5.94Q19.32 6.94 19.13 7.38L19.13 7.38L19.13 7.38Q18.94 7.82 18.59 7.82ZM18.73 8.62L18.73 8.62L18.73 8.62Q19.25 8.62 19.65 8.44L19.65 8.44L19.65 8.44Q20.05 8.26 20.29 7.98L20.29 7.98L20.29 7.98Q20.53 7.70 20.69 7.30L20.69 7.30L20.69 7.30Q20.85 6.91 20.91 6.51L20.91 6.51L20.91 6.51Q20.97 6.12 20.97 5.69L20.97 5.69L20.97 5.69Q20.97 4.41 20.45 3.74L20.45 3.74L20.45 3.74Q19.94 3.08 18.75 3.08L18.75 3.08L18.75 3.08Q18.54 3.08 18.17 3.09L18.17 3.09L18.17 3.09Q17.80 3.11 17.49 3.12L17.49 3.12L16.74 3.12L16.74 8.59L17.49 8.59L17.49 8.59Q17.86 8.59 18.21 8.60L18.21 8.60L18.21 8.60Q18.56 8.62 18.73 8.62ZM23.33 8.12L23.33 8.12L23.33 8.12Q22.90 8.12 22.90 7.24L22.90 7.24L22.90 5.73L22.90 5.73Q22.90 5.43 23.02 5.26L23.02 5.26L23.02 5.26Q23.13 5.10 23.33 5.10L23.33 5.10L23.33 5.10Q23.76 5.10 23.76 6.01L23.76 6.01L23.76 7.49L23.76 7.49Q23.76 7.78 23.65 7.95L23.65 7.95L23.65 7.95Q23.54 8.12 23.33 8.12ZM23.30 8.68L23.30 8.68L23.30 8.68Q24.40 8.68 24.92 8.17L24.92 8.17L24.92 8.17Q25.43 7.66 25.43 6.58L25.43 6.58L25.43 6.58Q25.43 5.55 24.95 5.04L24.95 5.04L24.95 5.04Q24.46 4.53 23.36 4.53L23.36 4.53L23.36 4.53Q22.24 4.53 21.74 5.06L21.74 5.06L21.74 5.06Q21.24 5.60 21.24 6.65L21.24 6.65L21.24 6.65Q21.24 7.71 21.73 8.20L21.73 8.20L21.73 8.20Q22.23 8.68 23.30 8.68ZM25.94 8.59L27.45 8.59L27.45 5.87L27.45 5.87Q27.46 5.86 27.48 5.84L27.48 5.84L27.48 5.84Q27.51 5.81 27.52 5.81L27.52 5.81L27.52 5.81Q27.53 5.80 27.56 5.77L27.56 5.77L27.56 5.77Q27.58 5.75 27.60 5.74L27.60 5.74L27.60 5.74Q27.61 5.74 27.64 5.72L27.64 5.72L27.64 5.72Q27.66 5.70 27.68 5.70L27.68 5.70L27.68 5.70Q27.70 5.69 27.72 5.68L27.72 5.68L27.72 5.68Q27.75 5.67 27.77 5.66L27.77 5.66L27.77 5.66Q27.79 5.66 27.82 5.65L27.82 5.65L27.82 5.65Q27.84 5.65 27.87 5.65L27.87 5.65L27.87 5.65Q28.26 5.65 28.24 6.09L28.24 6.09L28.24 8.59L29.78 8.59L29.78 6.36L29.78 6.36Q29.78 6.09 29.77 5.87L29.77 5.87L29.77 5.87Q30.00 5.65 30.14 5.65L30.14 5.65L30.14 5.65Q30.34 5.65 30.44 5.76L30.44 5.76L30.44 5.76Q30.53 5.88 30.53 6.09L30.53 6.09L30.53 8.59L32.05 8.59L32.05 6.22L32.05 6.22Q32.05 5.56 31.94 5.19L31.94 5.19L31.94 5.19Q31.83 4.83 31.58 4.68L31.58 4.68L31.58 4.68Q31.34 4.53 30.90 4.53L30.90 4.53L30.90 4.53Q30.50 4.53 30.17 4.77L30.17 4.77L30.17 4.77Q29.84 5.01 29.68 5.28L29.68 5.28L29.68 5.28Q29.58 4.88 29.33 4.70L29.33 4.70L29.33 4.70Q29.09 4.53 28.62 4.53L28.62 4.53L28.62 4.53Q28.44 4.53 28.25 4.60L28.25 4.60L28.25 4.60Q28.07 4.67 27.94 4.76L27.94 4.76L27.94 4.76Q27.81 4.85 27.69 4.97L27.69 4.97L27.69 4.97Q27.57 5.08 27.53 5.14L27.53 5.14L27.53 5.14Q27.48 5.19 27.46 5.22L27.46 5.22L27.46 4.62L26.67 4.62L25.66 4.90L25.66 5.39L25.94 5.57L25.94 8.59ZM34.61 8.22L34.66 8.17L34.81 8.59L36.09 8.59L35.96 8.22L35.96 6.32L35.96 6.32Q35.96 5.81 35.88 5.48L35.88 5.48L35.88 5.48Q35.80 5.14 35.61 4.93L35.61 4.93L35.61 4.93Q35.42 4.71 35.12 4.62L35.12 4.62L35.12 4.62Q34.81 4.53 34.35 4.53L34.35 4.53L34.35 4.53Q33.82 4.53 33.31 4.68L33.31 4.68L33.31 4.68Q32.80 4.84 32.48 5.04L32.48 5.04L32.78 5.68L32.78 5.68Q32.96 5.59 33.27 5.52L33.27 5.52L33.27 5.52Q33.59 5.45 33.88 5.45L33.88 5.45L33.88 5.45Q34.21 5.45 34.36 5.57L34.36 5.57L34.36 5.57Q34.51 5.68 34.51 5.97L34.51 5.97L34.51 6.05L34.51 6.05Q34.36 6.05 34.18 6.07L34.18 6.07L34.18 6.07Q34.01 6.08 33.79 6.12L33.79 6.12L33.79 6.12Q33.57 6.16 33.37 6.23L33.37 6.23L33.37 6.23Q33.18 6.29 32.98 6.40L32.98 6.40L32.98 6.40Q32.78 6.51 32.64 6.65L32.64 6.65L32.64 6.65Q32.50 6.79 32.41 6.99L32.41 6.99L32.41 6.99Q32.33 7.20 32.33 7.44L32.33 7.44L32.33 7.44Q32.33 8.68 33.59 8.68L33.59 8.68L33.59 8.68Q33.77 8.68 33.95 8.63L33.95 8.63L33.95 8.63Q34.13 8.58 34.25 8.50L34.25 8.50L34.25 8.50Q34.37 8.43 34.47 8.35L34.47 8.35L34.47 8.35Q34.57 8.28 34.61 8.22L34.61 8.22ZM34.29 7.86L34.29 7.86L34.29 7.86Q33.89 7.86 33.89 7.28L33.89 7.28L33.89 7.28Q33.89 6.95 34.06 6.80L34.06 6.80L34.06 6.80Q34.23 6.64 34.51 6.64L34.51 6.64L34.51 7.76L34.51 7.76Q34.51 7.76 34.49 7.79L34.49 7.79L34.49 7.79Q34.46 7.81 34.41 7.84L34.41 7.84L34.41 7.84Q34.35 7.86 34.29 7.86ZM36.55 5.57L36.55 8.59L38.05 8.59L38.05 4.62L37.27 4.62L36.27 4.90L36.27 5.39L36.55 5.57ZM36.46 3.42L37.23 4.19L37.40 4.19L38.20 3.42L38.20 3.26L37.40 2.49L37.23 2.49L36.46 3.26L36.46 3.42ZM38.70 8.59L40.21 8.59L40.21 5.87L40.21 5.87Q40.22 5.86 40.24 5.84L40.24 5.84L40.24 5.84Q40.27 5.81 40.28 5.81L40.28 5.81L40.28 5.81Q40.29 5.80 40.32 5.77L40.32 5.77L40.32 5.77Q40.34 5.75 40.36 5.74L40.36 5.74L40.36 5.74Q40.37 5.74 40.39 5.72L40.39 5.72L40.39 5.72Q40.42 5.70 40.44 5.70L40.44 5.70L40.44 5.70Q40.46 5.69 40.48 5.68L40.48 5.68L40.48 5.68Q40.51 5.67 40.53 5.66L40.53 5.66L40.53 5.66Q40.55 5.66 40.57 5.65L40.57 5.65L40.57 5.65Q40.60 5.65 40.63 5.65L40.63 5.65L40.63 5.65Q41.02 5.65 41.00 6.09L41.00 6.09L41.00 8.59L42.54 8.59L42.54 6.22L42.54 6.22Q42.54 6.19 42.55 6.13L42.55 6.13L42.55 6.13Q42.55 6.08 42.55 6.05L42.55 6.05L42.55 6.05Q42.55 5.23 42.28 4.88L42.28 4.88L42.28 4.88Q42.02 4.53 41.38 4.53L41.38 4.53L41.38 4.53Q41.20 4.53 41.01 4.60L41.01 4.60L41.01 4.60Q40.82 4.67 40.68 4.77L40.68 4.77L40.68 4.77Q40.55 4.87 40.44 4.97L40.44 4.97L40.44 4.97Q40.33 5.08 40.27 5.15L40.27 5.15L40.22 5.22L40.22 4.62L39.42 4.62L38.42 4.90L38.42 5.39L38.70 5.57L38.70 8.59ZM44.36 8.68L44.36 8.68L44.36 8.68Q46.16 8.68 46.16 7.25L46.16 7.25L46.16 7.25Q46.16 6.75 45.92 6.42L45.92 6.42L45.92 6.42Q45.67 6.09 45.12 5.91L45.12 5.91L45.12 5.91Q45.02 5.88 44.89 5.84L44.89 5.84L44.89 5.84Q44.75 5.81 44.68 5.79L44.68 5.79L44.68 5.79Q44.60 5.77 44.53 5.73L44.53 5.73L44.53 5.73Q44.45 5.70 44.42 5.65L44.42 5.65L44.42 5.65Q44.38 5.60 44.38 5.53L44.38 5.53L44.38 5.53Q44.38 5.26 44.83 5.26L44.83 5.26L44.83 5.26Q45.37 5.26 45.68 5.57L45.68 5.57L45.88 4.90L45.88 4.90Q45.88 4.90 45.80 4.82L45.80 4.82L45.80 4.82Q45.42 4.53 44.62 4.53L44.62 4.53L44.62 4.53Q44.16 4.53 43.78 4.66L43.78 4.66L43.78 4.66Q43.40 4.80 43.16 5.10L43.16 5.10L43.16 5.10Q42.91 5.40 42.91 5.82L42.91 5.82L42.91 5.82Q42.91 6.85 44.00 7.17L44.00 7.17L44.00 7.17Q44.42 7.30 44.61 7.39L44.61 7.39L44.61 7.39Q44.80 7.49 44.80 7.61L44.80 7.61L44.80 7.61Q44.80 7.74 44.69 7.81L44.69 7.81L44.69 7.81Q44.59 7.88 44.31 7.88L44.31 7.88L44.31 7.88Q43.92 7.88 43.55 7.77L43.55 7.77L43.55 7.77Q43.18 7.65 43.02 7.50L43.02 7.50L42.90 8.25L42.90 8.25Q43.02 8.39 43.47 8.54L43.47 8.54L43.47 8.54Q43.92 8.68 44.36 8.68Z"></path></g><!----><!----></svg>